fwd_states
version=1
nRows=4
nColumns=185
inDegrees=yes

# SIMM Motion File Header:
name fwd_states
datacolumns 185
datarows 4
otherdata 1
range 0.03626442 0.03655581
endheader
time	platform_rx	platform_ry	platform_rz	platform_ty	pelvis_tilt	pelvis_list	pelvis_rotation	pelvis_tx	pelvis_ty	pelvis_tz	hip_flexion_r	hip_adduction_r	hip_rotation_r	knee_angle_r	patella_r_constrained_knee_angle	ankle_angle_r	subtalar_angle_r	mtp_angle_r	hip_flexion_l	hip_adduction_l	hip_rotation_l	knee_angle_l	patella_l_constrained_knee_angle	ankle_angle_l	subtalar_angle_l	mtp_angle_l	lumbar_extension	lumbar_bending	lumbar_rotation	arm_flex_r	arm_add_r	arm_rot_r	elbow_flex_r	pro_sup_r	wrist_flex_r	wrist_dev_r	arm_flex_l	arm_add_l	arm_rot_l	elbow_flex_l	pro_sup_l	wrist_flex_l	wrist_dev_l	platform_rx_u	platform_ry_u	platform_rz_u	platform_ty_u	pelvis_tilt_u	pelvis_list_u	pelvis_rotation_u	pelvis_tx_u	pelvis_ty_u	pelvis_tz_u	hip_flexion_r_u	hip_adduction_r_u	hip_rotation_r_u	knee_angle_r_u	patella_r_constrained_knee_angle_u	ankle_angle_r_u	subtalar_angle_r_u	mtp_angle_r_u	hip_flexion_l_u	hip_adduction_l_u	hip_rotation_l_u	knee_angle_l_u	patella_l_constrained_knee_angle_u	ankle_angle_l_u	subtalar_angle_l_u	mtp_angle_l_u	lumbar_extension_u	lumbar_bending_u	lumbar_rotation_u	arm_flex_r_u	arm_add_r_u	arm_rot_r_u	elbow_flex_r_u	pro_sup_r_u	wrist_flex_r_u	wrist_dev_r_u	arm_flex_l_u	arm_add_l_u	arm_rot_l_u	elbow_flex_l_u	pro_sup_l_u	wrist_flex_l_u	wrist_dev_l_u	glut_med1_r.activation	glut_med1_r.fiber_length	glut_med2_r.activation	glut_med2_r.fiber_length	glut_med3_r.activation	glut_med3_r.fiber_length	glut_min1_r.activation	glut_min1_r.fiber_length	glut_min2_r.activation	glut_min2_r.fiber_length	glut_min3_r.activation	glut_min3_r.fiber_length	semimem_r.activation	semimem_r.fiber_length	semiten_r.activation	semiten_r.fiber_length	bifemlh_r.activation	bifemlh_r.fiber_length	bifemsh_r.activation	bifemsh_r.fiber_length	sar_r.activation	sar_r.fiber_length	add_long_r.activation	add_long_r.fiber_length	add_brev_r.activation	add_brev_r.fiber_length	add_mag1_r.activation	add_mag1_r.fiber_length	add_mag2_r.activation	add_mag2_r.fiber_length	add_mag3_r.activation	add_mag3_r.fiber_length	tfl_r.activation	tfl_r.fiber_length	pect_r.activation	pect_r.fiber_length	grac_r.activation	grac_r.fiber_length	glut_max1_r.activation	glut_max1_r.fiber_length	glut_max2_r.activation	glut_max2_r.fiber_length	glut_max3_r.activation	glut_max3_r.fiber_length	iliacus_r.activation	iliacus_r.fiber_length	psoas_r.activation	psoas_r.fiber_length	quad_fem_r.activation	quad_fem_r.fiber_length	gem_r.activation	gem_r.fiber_length	peri_r.activation	peri_r.fiber_length	rect_fem_r.activation	rect_fem_r.fiber_length	vas_med_r.activation	vas_med_r.fiber_length	vas_int_r.activation	vas_int_r.fiber_length	vas_lat_r.activation	vas_lat_r.fiber_length	med_gas_r.activation	med_gas_r.fiber_length	lat_gas_r.activation	lat_gas_r.fiber_length	soleus_r.activation	soleus_r.fiber_length	tib_post_r.activation	tib_post_r.fiber_length	flex_dig_r.activation	flex_dig_r.fiber_length	flex_hal_r.activation	flex_hal_r.fiber_length	tib_ant_r.activation	tib_ant_r.fiber_length	per_brev_r.activation	per_brev_r.fiber_length	per_long_r.activation	per_long_r.fiber_length	per_tert_r.activation	per_tert_r.fiber_length	ext_dig_r.activation	ext_dig_r.fiber_length	ext_hal_r.activation	ext_hal_r.fiber_length	ercspn_r.activation	ercspn_r.fiber_length	ercspn_l.activation	ercspn_l.fiber_length	intobl_r.activation	intobl_r.fiber_length	intobl_l.activation	intobl_l.fiber_length	extobl_r.activation	extobl_r.fiber_length	extobl_l.activation	extobl_l.fiber_length
      0.03626442	      0.00000000	      0.00000000	     -0.00000000	     -0.00000000	    -14.00606045	      5.90472765	     17.19328561	     -0.42486920	      0.99354745	      0.34109100	     32.50407401	     -8.10231606	     -6.64084423	    -26.02825086	    -26.02825086	      6.38158607	     -7.33259696	      0.00001318	     52.13915936	      0.00000000	     -9.99811353	   -101.98648811	   -101.98648811	      6.49999992	     -0.00000000	     -0.00000000	    -11.50622184	     -6.53989502	    -11.78707266	     -0.00000000	     -8.91003344	     -0.00000000	     72.06682857	     46.23690339	     -0.00000000	      4.87402477	     -0.00000000	     -8.91003344	     -0.00000000	     72.06682857	     46.23690339	     -0.00000000	      4.87402477	      0.00000000	     -0.00000000	     -0.00000000	     -0.00000000	     -7.59655687	    -86.09660522	   -192.82611667	      0.00732252	     -1.99830468	      0.53316051	    525.09190647	    225.98866952	    420.96237694	   -856.15273421	   -856.15273421	    423.49155734	   -302.60150728	     -0.00000000	      0.00000000	      0.00000000	     -0.00000000	     -0.00000000	      0.00000000	      0.00000000	     -0.00000000	      0.00000000	    -67.80577850	     87.33057017	    215.17667778	     -0.00000000	     -0.00000000	      0.00000000	     -0.00000000	      0.00000000	      0.00000000	      0.00000000	     -0.00000000	      0.00000000	     -0.00000000	     -0.00000000	      0.00000000	     -0.00000000	     -0.00000000	      0.03403304	      0.05041986	      0.10390969	      0.08707057	      0.25450715	      0.06823266	      0.03431087	      0.07017162	      0.05187741	      0.05921455	      0.17860485	      0.03729391	      0.21617951	      0.07590821	      0.47473655	      0.24321610	      0.34704321	      0.11843801	      0.24784689	      0.17356465	      0.03604184	      0.46276436	      0.03403304	      0.10922327	      0.03403304	      0.13032382	      0.03403304	      0.07684779	      0.03403304	      0.10477165	      0.03497282	      0.13506707	      0.05267888	      0.08911649	      0.03403304	      0.06854581	      0.03403304	      0.35041213	      0.09511575	      0.09626937	      0.10522503	      0.10979260	      0.07455614	      0.13674753	      0.03403304	      0.08851562	      0.03403304	      0.08151443	      0.28730946	      0.04956645	      0.48122705	      0.02115677	      0.41424115	      0.01928199	      0.15059448	      0.10159570	      0.12173448	      0.07427026	      0.15168795	      0.07573643	      0.12449999	      0.06979190	      0.30492062	      0.05443099	      0.31841916	      0.05896441	      0.37571961	      0.04950648	      0.03403304	      0.03848561	      0.03403304	      0.03511077	      0.03403304	      0.04323529	      0.23623463	      0.09578491	      0.03403304	      0.04919678	      0.03403304	      0.04922167	      0.03403304	      0.08366302	      0.03403304	      0.10632385	      0.03403304	      0.11562872	      0.13464025	      0.13496268	      0.07429409	      0.12224359	      0.03403304	      0.09344777	      0.07301358	      0.08571723	      0.15938779	      0.13503568	      0.04678023	      0.10567726
      0.03635396	      0.00000000	      0.00000000	     -0.00000000	     -0.00000000	    -14.00674025	      5.89701015	     17.17595203	     -0.42486871	      0.99336874	      0.34113881	     32.55131120	     -8.08205500	     -6.60316280	    -26.10525340	    -26.10525340	      6.41927270	     -7.35966351	      0.00001318	     52.13915936	      0.00000000	     -9.99811353	   -101.98648811	   -101.98648811	      6.49999992	     -0.00000000	     -0.00000000	    -11.51231420	     -6.53206903	    -11.76773900	     -0.00000000	     -8.91003344	     -0.00000000	     72.06682857	     46.23690339	     -0.00000000	      4.87402477	     -0.00000000	     -8.91003344	     -0.00000000	     72.06682857	     46.23690339	     -0.00000000	      4.87402477	      0.00000000	     -0.00000000	     -0.00000000	     -0.00000000	     -7.58727522	    -86.29261561	   -194.34511206	      0.00357842	     -1.99368128	      0.53468677	    530.01297624	    226.58770382	    420.71774570	   -863.80539550	   -863.80539550	    418.36144244	   -301.98059030	     -0.00000000	      0.00000000	      0.00000000	     -0.00000000	     -0.00000000	      0.00000000	      0.00000000	     -0.00000000	      0.00000000	    -68.28014534	     87.48298840	    216.67222283	     -0.00000000	     -0.00000000	      0.00000000	     -0.00000000	      0.00000000	      0.00000000	      0.00000000	     -0.00000000	      0.00000000	     -0.00000000	     -0.00000000	      0.00000000	     -0.00000000	     -0.00000000	      0.03400342	      0.05041498	      0.10537332	      0.08708713	      0.25762290	      0.06826649	      0.03428088	      0.07015834	      0.05182328	      0.05921299	      0.17996836	      0.03730457	      0.21609566	      0.07589520	      0.47475633	      0.24320112	      0.34701065	      0.11842939	      0.24783969	      0.17353690	      0.03600956	      0.46271840	      0.03400342	      0.10918636	      0.03400342	      0.13030471	      0.03400342	      0.07684463	      0.03400342	      0.10476923	      0.03494196	      0.13506725	      0.05262360	      0.08911699	      0.03400342	      0.06851950	      0.03400342	      0.35037299	      0.09675160	      0.09629769	      0.10715232	      0.10982712	      0.07668121	      0.13677771	      0.03400342	      0.08849044	      0.03400342	      0.08149228	      0.29121095	      0.04960178	      0.48477627	      0.02117882	      0.41734445	      0.01930128	      0.15116019	      0.10161936	      0.12323859	      0.07431528	      0.15339064	      0.07578297	      0.12602534	      0.06983649	      0.30562504	      0.05443838	      0.31915115	      0.05897312	      0.37668603	      0.04953105	      0.03400342	      0.03850070	      0.03400342	      0.03512909	      0.03400342	      0.04325580	      0.23616620	      0.09574464	      0.03400342	      0.04919622	      0.03400342	      0.04922327	      0.03400342	      0.08364212	      0.03400342	      0.10629697	      0.03400342	      0.11559952	      0.13463637	      0.13495902	      0.07471619	      0.12225526	      0.03400342	      0.09343776	      0.07292767	      0.08571769	      0.15935852	      0.13501510	      0.04691306	      0.10568385
      0.03645489	      0.00000000	      0.00000000	     -0.00000000	     -0.00000000	    -14.00750508	      5.88828977	     17.15625591	     -0.42486855	      0.99316777	      0.34119285	     32.60506779	     -8.05915333	     -6.56072323	    -26.19284529	    -26.19284529	      6.46121484	     -7.39009927	      0.00001318	     52.13915936	      0.00000000	     -9.99811353	   -101.98648811	   -101.98648811	      6.49999992	     -0.00000000	     -0.00000000	    -11.51923193	     -6.52323069	    -11.74579052	     -0.00000000	     -8.91003344	     -0.00000000	     72.06682857	     46.23690339	     -0.00000000	      4.87402477	     -0.00000000	     -8.91003344	     -0.00000000	     72.06682857	     46.23690339	     -0.00000000	      4.87402477	      0.00000000	     -0.00000000	     -0.00000000	     -0.00000000	     -7.56702355	    -86.51186333	   -195.93596210	     -0.00040953	     -1.98874160	      0.53627120	    535.17049216	    227.23057233	    420.23941903	   -871.82834155	   -871.82834155	    412.80758304	   -301.13073498	     -0.00000000	     -0.00000000	      0.00000000	     -0.00000000	     -0.00000000	      0.00000000	      0.00000000	     -0.00000000	      0.00000000	    -68.80051359	     87.66030960	    218.24320311	     -0.00000000	     -0.00000000	      0.00000000	     -0.00000000	      0.00000000	      0.00000000	      0.00000000	     -0.00000000	      0.00000000	     -0.00000000	     -0.00000000	      0.00000000	     -0.00000000	     -0.00000000	      0.03397007	      0.05040940	      0.10703692	      0.08710605	      0.26112535	      0.06830490	      0.03424713	      0.07014338	      0.05176236	      0.05921121	      0.18151909	      0.03731669	      0.21600092	      0.07588054	      0.47477767	      0.24318416	      0.34697378	      0.11841975	      0.24783115	      0.17350478	      0.03597323	      0.46266511	      0.03397007	      0.10914476	      0.03397007	      0.13028313	      0.03397007	      0.07684130	      0.03397007	      0.10476682	      0.03490722	      0.13506763	      0.05256139	      0.08911748	      0.03397007	      0.06848984	      0.03397007	      0.35032859	      0.09861218	      0.09633011	      0.10934157	      0.10986664	      0.07911709	      0.13681258	      0.03397007	      0.08846206	      0.03397007	      0.08146624	      0.29557074	      0.04964178	      0.48874923	      0.02120374	      0.42084214	      0.01932316	      0.15180489	      0.10164633	      0.12495309	      0.07436673	      0.15532772	      0.07583619	      0.12776598	      0.06988746	      0.30641162	      0.05444634	      0.31996874	      0.05898253	      0.37776990	      0.04955834	      0.03397007	      0.03851760	      0.03397007	      0.03514965	      0.03397007	      0.04327874	      0.23608871	      0.09569926	      0.03397007	      0.04919553	      0.03397007	      0.04922501	      0.03397007	      0.08361857	      0.03397007	      0.10626667	      0.03397007	      0.11556660	      0.13463193	      0.13495488	      0.07519469	      0.12226850	      0.03397007	      0.09342653	      0.07283100	      0.08571813	      0.15932518	      0.13499162	      0.04706417	      0.10569131
      0.03655581	      0.00000000	      0.00000000	     -0.00000000	     -0.00000000	    -14.00826735	      5.87954734	     17.13640554	     -0.42486879	      0.99296729	      0.34124705	     32.65932469	     -8.03618848	     -6.51834241	    -26.28121575	    -26.28121575	      6.50260806	     -7.42044025	      0.00001318	     52.13915936	      0.00000000	     -9.99811353	   -101.98648811	   -101.98648811	      6.49999992	     -0.00000000	     -0.00000000	    -11.52620145	     -6.51437415	    -11.72368946	     -0.00000000	     -8.91003344	     -0.00000000	     72.06682857	     46.23690339	     -0.00000000	      4.87402477	     -0.00000000	     -8.91003344	     -0.00000000	     72.06682857	     46.23690339	     -0.00000000	      4.87402477	      0.00000000	     -0.00000000	     -0.00000000	     -0.00000000	     -7.53663495	    -86.72965100	   -197.40260906	     -0.00416028	     -1.98407796	      0.53771634	    539.92982174	    227.83996918	    419.55481330	   -879.23829096	   -879.23829096	    407.48358321	   -300.09248019	     -0.00000000	      0.00000000	      0.00000000	     -0.00000000	     -0.00000000	      0.00000000	      0.00000000	     -0.00000000	      0.00000000	    -69.30635120	     87.84370740	    219.69671017	     -0.00000000	     -0.00000000	      0.00000000	     -0.00000000	      0.00000000	      0.00000000	      0.00000000	     -0.00000000	      0.00000000	     -0.00000000	     -0.00000000	      0.00000000	     -0.00000000	     -0.00000000	      0.03393677	      0.05040373	      0.10871321	      0.08712522	      0.26461456	      0.06834359	      0.03421342	      0.07012843	      0.05170154	      0.05920943	      0.18308290	      0.03732894	      0.21590595	      0.07586588	      0.47479801	      0.24316710	      0.34693674	      0.11841020	      0.24782214	      0.17347177	      0.03593696	      0.46261034	      0.03393677	      0.10910317	      0.03393677	      0.13026150	      0.03393677	      0.07683821	      0.03393677	      0.10476474	      0.03487253	      0.13506822	      0.05249928	      0.08911790	      0.03393677	      0.06846019	      0.03393677	      0.35028390	      0.10048827	      0.09636304	      0.11154614	      0.10990677	      0.08159272	      0.13684834	      0.03393677	      0.08843369	      0.03393677	      0.08143905	      0.29988699	      0.04968196	      0.49269006	      0.02122873	      0.42433674	      0.01934518	      0.15245611	      0.10167360	      0.12668582	      0.07441889	      0.15728154	      0.07589018	      0.12952713	      0.06993914	      0.30719034	      0.05445394	      0.32077840	      0.05899151	      0.37884791	      0.04958521	      0.03393677	      0.03853439	      0.03393677	      0.03517012	      0.03393677	      0.04330151	      0.23601085	      0.09565388	      0.03393677	      0.04919478	      0.03393677	      0.04922668	      0.03393677	      0.08359501	      0.03393677	      0.10623638	      0.03393677	      0.11553368	      0.13462744	      0.13495072	      0.07567580	      0.12228180	      0.03393677	      0.09341537	      0.07273450	      0.08571851	      0.15929147	      0.13496782	      0.04721659	      0.10569879
